<svg width="16" height="16" viewBox="0 0 16 16" fill="none" xmlns="http://www.w3.org/2000/svg">
<path fill-rule="evenodd" clip-rule="evenodd" d="M5.50283 1.33301H10.4982C13.0722 1.33301 14.6668 2.92834 14.6668 5.50367V10.5037C14.6668 13.0717 13.0722 14.6663 10.4982 14.6663H5.49616C2.92816 14.6663 1.3335 13.0717 1.33416 10.5017C1.33416 10.2203 1.56283 9.99167 1.84416 9.99167C2.12616 9.99167 2.35416 10.2203 2.35416 10.5017C2.35416 12.5243 3.46816 13.6443 5.50283 13.6443H10.4982C12.5268 13.6443 13.6468 12.5303 13.6468 10.5017V5.50167C13.6468 3.47301 12.5335 2.35301 10.4982 2.35301H5.50216C3.4735 2.35301 2.3535 3.47301 2.3535 5.50167V7.04367V7.05567C2.3535 7.33434 2.12816 7.55967 1.8495 7.55967H1.8435H1.84216C1.56083 7.55967 1.33283 7.33101 1.3335 7.04967V5.50167C1.3335 2.92834 2.94016 1.33301 5.50283 1.33301ZM5.01367 7.20233C5.45434 7.20233 5.81234 7.56033 5.81234 7.99966C5.81234 8.43966 5.45434 8.79766 5.01367 8.79766C4.57367 8.79766 4.215 8.43966 4.215 7.99966C4.215 7.56033 4.57367 7.20233 5.01367 7.20233ZM8 7.20233C8.44067 7.20233 8.79867 7.56033 8.79867 7.99966C8.79867 8.43966 8.44067 8.79766 8 8.79766C7.56 8.79766 7.20133 8.43966 7.20133 7.99966C7.20133 7.56033 7.56 7.20233 8 7.20233ZM11.785 7.99967C11.785 7.56034 11.427 7.20234 10.9863 7.20234C10.5463 7.20234 10.1876 7.56034 10.1876 7.99967C10.1876 8.43967 10.5463 8.79767 10.9863 8.79767C11.427 8.79767 11.785 8.43967 11.785 7.99967Z" fill="#181817"/>
</svg>
