<svg width="34" height="34" viewBox="0 0 34 34" fill="none" xmlns="http://www.w3.org/2000/svg">
<path d="M31.1668 31.167H2.8335" stroke="#33B04E" stroke-linecap="round"/>
<path d="M24.0833 31.1668V8.50016C24.0833 5.82833 24.0833 4.49383 23.2532 3.66366C22.423 2.8335 21.0885 2.8335 18.4167 2.8335H15.5833C12.9115 2.8335 11.577 2.8335 10.7468 3.66366C9.91667 4.49383 9.91667 5.82833 9.91667 8.50016V31.1668M29.75 31.1668V12.0418C29.75 10.0528 29.75 9.05691 29.2726 8.34291C29.0658 8.03341 28.8001 7.76768 28.4906 7.56091C27.7766 7.0835 26.7807 7.0835 24.7917 7.0835M4.25 31.1668V12.0418C4.25 10.0528 4.25 9.05691 4.72742 8.34291C4.93419 8.03341 5.19991 7.76768 5.50942 7.56091C6.22342 7.0835 7.21933 7.0835 9.20833 7.0835" stroke="#33B04E"/>
<path d="M17.0003 31.1668V26.9168M14.167 17.0002H19.8337M7.79199 15.5835H9.91699M7.79199 19.8335H9.91699M24.0837 15.5835H26.2087M24.0837 19.8335H26.2087M7.79199 11.3335H9.91699M24.0837 11.3335H26.2087M14.167 21.2502H19.8337" stroke="#33B04E" stroke-linecap="round"/>
<path d="M17.0003 12.7502C18.5651 12.7502 19.8337 11.4816 19.8337 9.91683C19.8337 8.35202 18.5651 7.0835 17.0003 7.0835C15.4355 7.0835 14.167 8.35202 14.167 9.91683C14.167 11.4816 15.4355 12.7502 17.0003 12.7502Z" stroke="#33B04E"/>
</svg>
