<svg width="24" height="25" viewBox="0 0 24 25" fill="none" xmlns="http://www.w3.org/2000/svg">
<path opacity="0.5" d="M18.7501 9.5V10.204C18.7501 11.049 18.9901 11.875 19.4421 12.578L20.5501 14.301C21.5611 15.875 20.7891 18.014 19.0301 18.511C14.4338 19.813 9.56631 19.813 4.97006 18.511C3.21106 18.014 2.43906 15.875 3.45006 14.301L4.55806 12.578C5.01164 11.8694 5.25217 11.0454 5.25106 10.204V9.5C5.25106 5.634 8.27306 2.5 12.0001 2.5C15.7271 2.5 18.7501 5.634 18.7501 9.5Z" fill="#88A1B3"/>
<path d="M7.24316 19.0449C7.56991 20.049 8.20605 20.924 9.06046 21.5445C9.91487 22.1649 10.9437 22.4991 11.9997 22.4991C13.0556 22.4991 14.0845 22.1649 14.9389 21.5445C15.7933 20.924 16.4294 20.049 16.7562 19.0449C13.6112 19.6349 10.3892 19.6349 7.24316 19.0449Z" fill="#88A1B3"/>
</svg>
