<svg width="58" height="58" viewBox="0 0 58 58" fill="none" xmlns="http://www.w3.org/2000/svg">
<rect width="58" height="58" rx="8" fill="#D8EEFF"/>
<path d="M29.0037 22.9793C27.8766 22.9793 26.7955 23.4271 25.9985 24.2241C25.2015 25.0212 24.7537 26.1022 24.7537 27.2293C24.7537 28.3565 25.2015 29.4375 25.9985 30.2345C26.7955 31.0316 27.8766 31.4793 29.0037 31.4793C30.1309 31.4793 31.2119 31.0316 32.0089 30.2345C32.806 29.4375 33.2537 28.3565 33.2537 27.2293C33.2537 26.1022 32.806 25.0212 32.0089 24.2241C31.2119 23.4271 30.1309 22.9793 29.0037 22.9793ZM26.5246 27.2293C26.5246 26.5718 26.7858 25.9412 27.2507 25.4763C27.7156 25.0114 28.3462 24.7502 29.0037 24.7502C29.6612 24.7502 30.2918 25.0114 30.7568 25.4763C31.2217 25.9412 31.4829 26.5718 31.4829 27.2293C31.4829 27.8868 31.2217 28.5174 30.7568 28.9824C30.2918 29.4473 29.6612 29.7085 29.0037 29.7085C28.3462 29.7085 27.7156 29.4473 27.2507 28.9824C26.7858 28.5174 26.5246 27.8868 26.5246 27.2293ZM38.2085 34.6668L31.0628 42.2531C30.7979 42.5344 30.4783 42.7585 30.1236 42.9117C29.7689 43.0649 29.3866 43.1439 29.0002 43.1439C28.6138 43.1439 28.2315 43.0649 27.8768 42.9117C27.522 42.7585 27.2024 42.5344 26.9375 42.2531L19.7918 34.6668H19.8188L19.8067 34.6527L19.7918 34.635C17.9578 32.4658 16.9536 29.7158 16.9585 26.8752C16.9585 20.2246 22.3496 14.8335 29.0002 14.8335C35.6507 14.8335 41.0418 20.2246 41.0418 26.8752C41.0467 29.7158 40.0426 32.4658 38.2085 34.635L38.1936 34.6527L38.1816 34.6668H38.2085ZM36.8322 33.52C38.4105 31.6661 39.2753 29.3099 39.271 26.8752C39.271 21.2028 34.6725 16.6043 29.0002 16.6043C23.3278 16.6043 18.7293 21.2028 18.7293 26.8752C18.7249 29.3099 19.5897 31.6662 21.1681 33.52L21.3863 33.7772L28.2267 41.0383C28.326 41.1438 28.4459 41.2278 28.5789 41.2853C28.7119 41.3427 28.8553 41.3724 29.0002 41.3724C29.1451 41.3724 29.2884 41.3427 29.4215 41.2853C29.5545 41.2278 29.6743 41.1438 29.7737 41.0383L36.6141 33.7772L36.8322 33.52Z" fill="#168DE2"/>
</svg>
