<svg width="22" height="22" viewBox="0 0 22 22" fill="none" xmlns="http://www.w3.org/2000/svg">
<path d="M21 21H1" stroke="white" stroke-linecap="round"/>
<path d="M16 21V5C16 3.114 16 2.172 15.414 1.586C14.828 1 13.886 1 12 1H10C8.114 1 7.172 1 6.586 1.586C6 2.172 6 3.114 6 5V21M20 21V7.5C20 6.096 20 5.393 19.663 4.889C19.517 4.67053 19.3295 4.48296 19.111 4.337C18.607 4 17.904 4 16.5 4M2 21V7.5C2 6.096 2 5.393 2.337 4.889C2.48296 4.67053 2.67053 4.48296 2.889 4.337C3.393 4 4.096 4 5.5 4" stroke="white"/>
<path d="M11 21V18M9 11H13M4.5 10H6M4.5 13H6M16 10H17.5M16 13H17.5M4.5 7H6M16 7H17.5M9 14H13" stroke="white" stroke-linecap="round"/>
<path d="M11 8C12.1046 8 13 7.10457 13 6C13 4.89543 12.1046 4 11 4C9.89543 4 9 4.89543 9 6C9 7.10457 9.89543 8 11 8Z" stroke="white"/>
</svg>
