<svg width="34" height="34" viewBox="0 0 34 34" fill="none" xmlns="http://www.w3.org/2000/svg">
<path d="M17.0037 10.9793C15.8766 10.9793 14.7955 11.4271 13.9985 12.2241C13.2015 13.0212 12.7537 14.1022 12.7537 15.2293C12.7537 16.3565 13.2015 17.4375 13.9985 18.2345C14.7955 19.0316 15.8766 19.4793 17.0037 19.4793C18.1309 19.4793 19.2119 19.0316 20.0089 18.2345C20.806 17.4375 21.2537 16.3565 21.2537 15.2293C21.2537 14.1022 20.806 13.0212 20.0089 12.2241C19.2119 11.4271 18.1309 10.9793 17.0037 10.9793ZM14.5246 15.2293C14.5246 14.5718 14.7858 13.9412 15.2507 13.4763C15.7156 13.0114 16.3462 12.7502 17.0037 12.7502C17.6612 12.7502 18.2918 13.0114 18.7568 13.4763C19.2217 13.9412 19.4829 14.5718 19.4829 15.2293C19.4829 15.8868 19.2217 16.5174 18.7568 16.9824C18.2918 17.4473 17.6612 17.7085 17.0037 17.7085C16.3462 17.7085 15.7156 17.4473 15.2507 16.9824C14.7858 16.5174 14.5246 15.8868 14.5246 15.2293ZM26.2085 22.6668L19.0628 30.2531C18.7979 30.5344 18.4783 30.7585 18.1236 30.9117C17.7689 31.0649 17.3866 31.1439 17.0002 31.1439C16.6138 31.1439 16.2315 31.0649 15.8768 30.9117C15.522 30.7585 15.2024 30.5344 14.9375 30.2531L7.79185 22.6668H7.81876L7.80672 22.6527L7.79185 22.635C5.95776 20.4658 4.95364 17.7158 4.95851 14.8752C4.95851 8.22462 10.3496 2.8335 17.0002 2.8335C23.6507 2.8335 29.0418 8.22462 29.0418 14.8752C29.0467 17.7158 28.0426 20.4658 26.2085 22.635L26.1936 22.6527L26.1816 22.6668H26.2085ZM24.8322 21.52C26.4105 19.6661 27.2753 17.3099 27.271 14.8752C27.271 9.20283 22.6725 4.60433 17.0002 4.60433C11.3278 4.60433 6.72935 9.20283 6.72935 14.8752C6.72492 17.3099 7.58974 19.6662 9.16814 21.52L9.38631 21.7772L16.2267 29.0383C16.326 29.1438 16.4459 29.2278 16.5789 29.2853C16.7119 29.3427 16.8553 29.3724 17.0002 29.3724C17.1451 29.3724 17.2884 29.3427 17.4215 29.2853C17.5545 29.2278 17.6743 29.1438 17.7737 29.0383L24.6141 21.7772L24.8322 21.52Z" fill="#168DE2"/>
</svg>
