<svg width="58" height="58" viewBox="0 0 58 58" fill="none" xmlns="http://www.w3.org/2000/svg">
<rect width="58" height="58" rx="8" fill="#E5FEE9"/>
<path d="M43.1668 43.167H14.8335" stroke="#33B04E" stroke-linecap="round"/>
<path d="M36.0833 43.1668V20.5002C36.0833 17.8283 36.0833 16.4938 35.2532 15.6637C34.423 14.8335 33.0885 14.8335 30.4167 14.8335H27.5833C24.9115 14.8335 23.577 14.8335 22.7468 15.6637C21.9167 16.4938 21.9167 17.8283 21.9167 20.5002V43.1668M41.75 43.1668V24.0418C41.75 22.0528 41.75 21.0569 41.2726 20.3429C41.0658 20.0334 40.8001 19.7677 40.4906 19.5609C39.7766 19.0835 38.7807 19.0835 36.7917 19.0835M16.25 43.1668V24.0418C16.25 22.0528 16.25 21.0569 16.7274 20.3429C16.9342 20.0334 17.1999 19.7677 17.5094 19.5609C18.2234 19.0835 19.2193 19.0835 21.2083 19.0835" stroke="#33B04E"/>
<path d="M29.0003 43.1668V38.9168M26.167 29.0002H31.8337M19.792 27.5835H21.917M19.792 31.8335H21.917M36.0837 27.5835H38.2087M36.0837 31.8335H38.2087M19.792 23.3335H21.917M36.0837 23.3335H38.2087M26.167 33.2502H31.8337" stroke="#33B04E" stroke-linecap="round"/>
<path d="M29.0003 24.7502C30.5651 24.7502 31.8337 23.4816 31.8337 21.9168C31.8337 20.352 30.5651 19.0835 29.0003 19.0835C27.4355 19.0835 26.167 20.352 26.167 21.9168C26.167 23.4816 27.4355 24.7502 29.0003 24.7502Z" stroke="#33B04E"/>
</svg>
