<svg width="20" height="20" viewBox="0 0 20 20" fill="none" xmlns="http://www.w3.org/2000/svg">
<path fill-rule="evenodd" clip-rule="evenodd" d="M19.9887 7.93749C19.3016 3.74419 15.7166 0.624668 11.442 0.50041C11.0141 0.49058 10.6014 0.657749 10.3024 0.961962C10.0136 1.25955 9.86409 1.6641 9.89043 2.07665L10.3287 8.61675C10.3971 9.44219 11.0904 10.078 11.9241 10.0798H12.0293L18.6037 9.64435C18.9985 9.62199 19.3679 9.44376 19.6297 9.14935C19.8914 8.85493 20.0239 8.46877 19.9975 8.07682V7.93749H19.9887ZM11.9241 8.51225L11.4858 2.08536C14.9251 2.224 17.8051 4.71929 18.4109 8.08553L11.9241 8.51225ZM14.7993 12.9884C14.9225 12.5712 15.3582 12.3277 15.7811 12.4398C15.9885 12.489 16.1671 12.6195 16.2761 12.8016C16.3851 12.9837 16.4152 13.2019 16.3597 13.4064C15.7643 15.5651 14.3122 17.3911 12.3361 18.4661C9.91133 19.8013 6.97567 19.8458 4.51098 18.5848C2.04629 17.3238 0.377919 14.9237 0.0638699 12.1872C0.0129269 11.8677 -0.00761751 11.544 0.00250866 11.2206C-0.00172614 7.29931 2.76558 3.91373 6.62952 3.11297C7.06523 3.02639 7.48909 3.30712 7.57623 3.73998C7.66338 4.17284 7.3808 4.59393 6.94509 4.6805C3.82643 5.33954 1.59908 8.07916 1.60667 11.2467C1.5994 11.4943 1.61407 11.742 1.6505 11.9869C2.03513 15.1495 4.61427 17.6021 7.81143 17.8456C11.0086 18.0891 13.9339 16.0558 14.7993 12.9884Z" fill="white"/>
</svg>
